<svg version="1.0" xmlns="http://www.w3.org/2000/svg" width="2000.000000pt" height="2000.000000pt" viewBox="0 0 2000.000000 2000.000000" preserveAspectRatio="xMidYMid meet">
<metadata>
Created by potrace 1.16, written by Peter Selinger 2001-2019
</metadata>
<g transform="translate(0.000000,2000.000000) scale(0.100000,-0.100000)" fill="#000000" stroke="none">
<path d="M8240 13603 c-92 -32 -169 -111 -196 -200 -11 -38 -14 -192 -14 -856
0 -579 -3 -821 -11 -848 -7 -22 -51 -85 -106 -151 -51 -62 -96 -123 -100 -136
-3 -13 -3 -54 -1 -92 7 -89 40 -149 106 -187 l47 -28 1143 -3 c628 -1 1142 0
1142 4 0 3 -15 32 -34 63 -96 160 -144 308 -161 494 l-7 77 -854 0 -854 0 0
785 0 785 1235 0 1235 0 0 -275 c0 -151 3 -275 8 -275 4 0 50 9 102 20 52 11
119 20 148 20 l53 0 -3 298 c-3 279 -4 300 -24 343 -28 60 -93 125 -153 153
l-46 21 -1305 2 c-1164 2 -1310 1 -1350 -14z m1670 -2202 c0 -37 -20 -71 -52
-91 -31 -18 -51 -20 -276 -20 -187 0 -250 3 -277 14 -35 15 -65 59 -65 96 0
20 4 20 335 20 325 0 335 -1 335 -19z" data-index="0"></path>
<path d="M11270 12477 c0 -469 2 -547 14 -547 14 0 1018 235 1043 244 8 4 7
22 -4 73 -39 173 -124 333 -245 458 -187 196 -411 297 -690 312 l-118 6 0
-546z m350 318 c210 -71 389 -236 478 -437 l21 -48 -37 -9 c-53 -15 -621 -151
-627 -151 -3 0 -5 154 -5 341 l0 342 49 -7 c27 -3 81 -18 121 -31z" data-index="1"></path>
<path d="M11030 12630 c-386 -38 -711 -329 -796 -711 -21 -96 -22 -281 -1
-375 65 -296 275 -544 557 -656 233 -92 512 -79 737 33 296 149 491 458 494
781 1 104 -10 226 -21 233 -3 2 -193 -41 -421 -95 -228 -55 -424 -102 -436
-105 l-23 -5 0 455 c0 250 -3 454 -7 454 -5 -1 -42 -5 -83 -9z" data-index="2"></path>
<path d="M14281 9204 c-125 -33 -232 -118 -287 -226 -40 -79 -54 -160 -54
-315 l0 -143 -130 0 -130 0 0 -80 0 -80 163 0 c120 -1 157 -3 144 -11 -46 -27
-47 -40 -47 -714 l0 -635 80 0 80 0 0 680 0 680 195 0 196 0 -3 78 -3 77 -194
3 -194 2 6 138 c5 154 20 215 70 288 24 36 48 56 92 79 59 29 63 30 212 30
l153 0 0 76 c0 71 -2 77 -22 83 -45 12 -272 5 -327 -10z" data-index="3"></path>
<path d="M9920 8743 l0 -417 -28 45 c-61 95 -158 153 -283 168 -300 38 -542
-144 -630 -475 -27 -100 -38 -371 -20 -496 43 -299 190 -498 415 -563 87 -26
233 -18 306 16 104 48 167 124 212 252 l23 67 5 -167 5 -168 213 -3 212 -2 0
1080 0 1080 -215 0 -215 0 0 -417z m-115 -580 c46 -24 76 -54 99 -100 14 -27
16 -75 16 -321 l0 -288 -32 -32 c-69 -66 -195 -97 -298 -72 -42 10 -65 24
-105 64 -77 75 -96 134 -103 309 -9 252 42 381 173 444 43 21 61 23 130 20 56
-2 92 -10 120 -24z" data-index="4"></path>
<path d="M2750 8829 l0 -191 409 4 409 3 -54 -60 c-44 -49 -126 -196 -454
-812 -220 -414 -400 -757 -400 -763 0 -7 252 -10 740 -10 l740 0 0 196 0 197
-414 -5 -415 -5 44 57 c24 31 198 354 390 726 191 368 369 711 396 762 l49 92
-720 0 -720 0 0 -191z" data-index="5"></path>
<path d="M4917 8539 c-86 -12 -205 -51 -277 -91 -30 -18 -87 -64 -127 -104
-57 -57 -81 -92 -116 -166 -71 -147 -82 -202 -81 -418 0 -158 3 -197 22 -265
71 -260 230 -422 477 -486 114 -29 327 -29 440 0 223 59 369 196 420 396 26
104 44 95 -190 95 l-204 0 -13 -42 c-16 -54 -72 -110 -124 -126 -23 -6 -75
-12 -115 -12 -119 1 -196 45 -246 144 -22 44 -52 156 -53 199 0 16 30 17 485
17 l484 0 7 36 c12 63 -3 283 -26 373 -56 226 -201 376 -417 431 -92 24 -250
33 -346 19z m251 -358 c72 -37 104 -95 126 -228 l6 -33 -228 0 c-203 0 -231
-2 -270 -20 -29 -13 -47 -30 -57 -52 l-14 -33 -1 36 c-1 94 46 227 98 282 55
58 112 77 217 73 58 -2 91 -8 123 -25z" data-index="6"></path>
<path d="M7921 8539 c-105 -12 -247 -58 -316 -105 -137 -90 -205 -222 -205
-396 l0 -78 205 0 205 0 0 43 c0 65 19 118 54 153 38 38 89 54 172 54 147 0
203 -56 212 -211 4 -84 4 -86 -19 -92 -13 -4 -41 -7 -61 -7 -66 0 -340 -39
-422 -60 -226 -57 -347 -170 -378 -349 -33 -193 54 -374 217 -450 153 -73 365
-68 487 10 67 43 134 138 164 234 11 36 13 23 13 -123 l1 -162 213 2 212 3 0
550 c0 606 0 607 -62 727 -84 162 -252 247 -518 261 -49 3 -128 1 -174 -4z
m329 -959 c0 -150 -5 -167 -75 -228 -57 -50 -129 -76 -212 -77 -66 0 -97 15
-137 68 -29 40 -34 132 -8 189 38 88 133 129 392 171 14 2 28 5 33 6 4 0 7
-58 7 -129z" data-index="7" style="opacity: 1;"></path>
<path d="M11323 8535 c-171 -37 -294 -140 -363 -302 l-29 -68 -1 140 c0 77 -3
157 -6 178 l-7 38 -66 -3 -66 -3 0 -755 0 -755 83 -3 82 -3 0 520 0 521 43 71
c124 209 285 298 487 269 153 -22 218 -93 240 -262 5 -40 10 -308 10 -595 l0
-523 80 0 80 0 0 583 c0 622 -3 654 -51 749 -86 169 -294 251 -516 203z" data-index="8" style="opacity: 1;"></path>
<path d="M12782 8539 c-201 -24 -351 -122 -425 -278 -25 -54 -31 -79 -35 -162
l-5 -99 85 0 85 0 6 81 c9 140 67 223 187 271 48 20 74 22 200 23 145 0 146 0
213 -33 117 -58 155 -140 160 -341 l2 -116 -130 -7 c-404 -23 -595 -76 -721
-202 -79 -79 -106 -146 -105 -263 0 -280 184 -438 489 -420 204 12 351 99 437
257 l35 65 0 -157 0 -158 81 0 80 0 -3 583 c-3 569 -4 583 -26 647 -65 195
-217 298 -462 313 -41 3 -108 1 -148 -4z m476 -927 l3 -153 -33 -62 c-43 -82
-139 -176 -219 -215 -167 -81 -396 -61 -474 42 -58 77 -77 224 -37 302 68 134
245 201 617 233 156 13 140 30 143 -147z" data-index="9" style="opacity: 1;"></path>
<path d="M15240 8544 c-156 -23 -274 -78 -369 -172 -98 -97 -159 -210 -198
-367 -27 -107 -24 -391 5 -500 71 -265 237 -441 472 -501 43 -11 103 -17 175
-16 310 1 524 153 559 395 l7 47 -85 0 -85 0 -15 -54 c-40 -136 -132 -206
-298 -228 -156 -19 -303 19 -405 107 -95 81 -167 238 -180 391 l-6 74 545 0
545 0 7 68 c14 146 -27 349 -97 472 -47 84 -159 191 -241 229 -96 47 -237 69
-336 55z m180 -170 c186 -43 300 -198 325 -441 l6 -62 -441 -3 -442 -3 -26
-30 -25 -30 6 70 c35 370 279 574 597 499z" data-index="10" style="opacity: 1;"></path>
<path d="M16688 8540 c-191 -23 -353 -124 -420 -262 -35 -71 -47 -126 -48
-210 l0 -68 84 0 83 0 6 75 c9 98 37 163 97 219 69 65 130 81 300 81 128 0
138 -2 198 -29 120 -55 160 -136 169 -337 l6 -126 -144 -7 c-283 -14 -463 -48
-589 -111 -92 -46 -149 -99 -191 -177 -27 -53 -34 -76 -37 -144 -15 -277 158
-454 445 -454 109 0 172 14 270 61 99 47 168 112 212 200 l31 62 0 -156 0
-157 80 0 80 0 0 563 c0 619 -2 636 -62 748 -91 171 -313 260 -570 229z m472
-933 l0 -163 -36 -60 c-103 -172 -278 -265 -474 -251 -133 9 -211 61 -250 164
-27 73 -27 172 1 230 64 132 254 203 624 232 55 5 108 9 118 10 16 1 17 -13
17 -162z" data-index="11" style="opacity: 1;"></path>
<path d="M5800 8513 c0 -5 113 -347 251 -760 l251 -753 75 0 c71 0 74 -1 57
-17 -9 -10 -26 -38 -37 -63 -53 -122 -92 -141 -299 -148 l-148 -5 0 -178 0
-179 133 0 c231 0 351 42 468 160 71 72 120 151 176 283 29 68 533 1639 533
1660 0 4 -103 7 -230 7 -126 0 -230 -2 -230 -4 0 -2 -47 -201 -104 -442 -57
-242 -114 -486 -126 -544 -12 -58 -26 -109 -30 -113 -4 -5 -22 54 -40 130 -28
122 -205 837 -231 936 l-10 37 -229 0 c-127 0 -230 -3 -230 -7z" data-index="12"></path>
</g>
</svg>